<svg width="711" height="554" viewBox="0 0 711 554" fill="none" xmlns="http://www.w3.org/2000/svg">
<path fill-rule="evenodd" clip-rule="evenodd" d="M16.1091 244.505C-5.36971 265.983 -5.36971 300.808 16.1091 322.286L164.602 470.779C186.08 492.258 220.904 492.258 242.383 470.779L283.31 429.852L390.683 537.225C412.162 558.704 446.986 558.704 468.464 537.225L694.739 310.951C716.217 289.472 716.217 254.648 694.739 233.169L477.678 16.1091C456.199 -5.3697 421.375 -5.36971 399.897 16.1091L288.259 127.746L249.454 88.9411C227.976 67.4623 193.151 67.4623 171.673 88.9411L16.1091 244.505ZM173.622 242.383L231.127 184.878C211.007 176.117 186.715 179.964 170.258 196.421L123.589 243.09C102.111 264.569 102.111 299.393 123.589 320.872L166.723 364.006C183.447 380.73 208.263 384.432 228.569 375.112L173.622 320.165C152.144 298.686 152.144 263.862 173.622 242.383Z" fill="url(#paint0_linear_2_24)"/>
<rect x="281.218" y="281.186" width="229.333" height="222.818" rx="55" transform="rotate(-45 281.218 281.186)" fill="#2F9E40"/>
<path fill-rule="evenodd" clip-rule="evenodd" d="M604.091 63C632.258 63 655.091 85.8335 655.091 114V224.155C655.091 235.156 646.174 244.073 635.173 244.073C624.173 244.073 615.403 235.105 613.87 224.212C610.675 201.512 602.084 180.544 589.435 162.648L493.852 258.23L459 223.378L554.431 127.947C536.758 115.687 516.153 107.356 493.879 104.222C482.986 102.689 474.018 93.9185 474.018 82.9181C474.018 71.9176 482.936 63 493.936 63H604.091Z" fill="#2F9E40"/>
<defs>
<linearGradient id="paint0_linear_2_24" x1="537" y1="553" x2="433" y2="-48" gradientUnits="userSpaceOnUse">
<stop stop-color="#274594"/>
<stop offset="1" stop-color="#237592"/>
</linearGradient>
</defs>
</svg>
